<svg width="887" height="129" viewBox="0 0 887 129" fill="none" xmlns="http://www.w3.org/2000/svg">
<path d="M887 97.0766C869.725 98.6291 852.495 100.299 835.167 100.341C728.107 100.598 621.023 100.54 513.949 100.464C488.19 100.446 464.64 101.154 464.708 107.531C464.777 113.941 488.545 114.585 514.183 114.489C552.322 114.347 590.484 114.458 628.636 114.472C653.107 114.481 674.796 115.862 675.571 121.542C676.416 127.737 654.548 129.023 627.906 129C518.37 128.905 408.832 128.938 299.295 128.976C275.126 128.984 253.066 128.136 251.697 122.256C250.231 115.964 272.451 114.547 298.456 114.476C316.91 114.426 337.06 115.329 353.308 114.113C367.199 113.073 383.54 109.842 385.622 107.166C387.055 105.325 367.592 102.183 354.425 100.745C344.886 99.703 330.314 100.626 318.064 100.453C294.946 100.126 277.863 97.3758 282.863 92.9626C285.925 90.2607 304.314 86.7493 317.882 86.3373C350.382 85.3504 384.102 85.9273 417.326 85.9753C441.655 86.0105 459.384 84.1992 459.585 78.9258C459.785 73.6394 442.081 71.812 417.813 71.8111C299.666 71.8064 181.52 71.7743 63.3732 71.7238C51.1026 71.7186 36.5379 72.3197 27.1421 71.2229C15.2156 69.8308 -1.18007 66.7657 0.0671364 64.8299C1.7491 62.2194 16.7152 59.4958 29.2588 57.7948C36.948 56.752 50.7733 57.5 61.8434 57.4987C225.533 57.4795 389.224 57.5044 552.913 57.3906C565.846 57.3816 581.847 57.1752 590.8 55.6926C599.35 54.2766 607.599 50.2184 603.453 48.8421C595.901 46.3354 579.409 43.4738 566.07 43.3544C502.195 42.7824 438.085 43.3237 374.165 42.8675C361.072 42.774 345.198 40.6047 336.807 38.4288C331.799 37.1302 334.977 33.2484 341.496 31.8089C349.306 30.0842 364.427 29.0275 376.683 28.9058C412.261 28.5528 447.99 28.8295 483.659 28.8248C506.746 28.8217 526.994 27.4429 527.926 22.1304C528.901 16.5751 511.286 14.538 484.591 14.5761C402.136 14.6938 319.672 14.5583 237.214 14.6214C210.796 14.6416 184.82 14.2215 184.266 7.42467C183.709 0.57812 209.626 0.0302606 236.07 0.0359601C375.145 0.0660199 514.221 0.0977082 653.295 0.000268431C680.576 -0.0188223 706.08 0.966612 705.931 7.3777C705.78 13.8238 680.114 14.8879 652.837 14.5897C626.558 14.3024 604.35 15.7215 605.327 22.0263C606.248 27.9658 628.801 28.7572 652.857 28.7386C708.241 28.6959 763.625 28.7382 819.009 28.7076C845.247 28.6931 867.211 30.0413 866.107 36.3467C865.071 42.265 843.39 43.1695 818.929 43.0927C786.938 42.9922 754.93 43.1291 722.933 43.0795C698.163 43.041 681.071 45.2611 681.315 50.3136C681.558 55.3369 698.616 57.5435 723.465 57.4714C750.534 57.3928 777.616 57.509 804.692 57.5025C828.37 57.4968 842.984 59.8458 843.034 64.5543C843.085 69.2949 827.753 71.6639 804.624 71.6858C730.783 71.7555 656.877 71.4156 583.146 71.9989C567.593 72.122 545.91 74.8035 538.993 77.5277C527.495 82.0562 548.692 85.8948 582.314 85.9284C667.235 86.0132 752.165 85.8472 837.074 86.0593C852.122 86.0969 867.087 87.4736 884.545 88.5249C887 91.3591 887 93.9003 887 97.0766Z" fill="url(#paint0_linear_46_234)"/>
<defs>
<linearGradient id="paint0_linear_46_234" x1="0" y1="64.5" x2="887" y2="64.5" gradientUnits="userSpaceOnUse">
<stop offset="0.27" stop-color="#6F6F6F"/>
<stop offset="0.635" stop-color="#D5D5D5"/>
</linearGradient>
</defs>
</svg>
