<svg width="520" height="60" viewBox="0 0 520 60" fill="none" xmlns="http://www.w3.org/2000/svg">
<path d="M392.969 0C411.019 7.55025 402.242 11.2286 368.047 11.2918C339.973 11.3438 311.892 11.3554 283.821 11.2689C267.667 11.2191 254.88 12.6282 254.211 16.9882C253.488 21.7042 266.395 23.4053 283.682 23.4013C315.881 23.3939 348.085 23.5352 380.276 23.42C398.054 23.3564 410.247 25.0672 409.648 29.7465C409.084 34.151 396.044 35.5079 380.087 35.4199C368.532 35.3562 356.967 35.3928 345.407 35.4078C329.095 35.4289 316.987 37.2895 317.242 41.5538C317.492 45.7429 329.14 47.6115 345.782 47.6008C411.017 47.5588 476.253 47.5881 541.488 47.6061C548.078 47.6079 556.265 47.1143 560.89 47.9062C568.257 49.1673 578.061 51.3273 578 53.0874C577.927 55.1704 570.006 57.7644 562.594 59.1305C556.938 60.1728 546.776 59.7959 538.617 59.7975C375.941 59.8298 213.265 59.8257 50.5889 59.8262C45.6359 59.8262 39.116 60.2996 36.0286 59.6839C27.3338 57.95 15.1992 56.0168 13.3013 53.6966C10.1318 49.8218 22.2507 47.6996 37.6831 47.6208C59.144 47.5113 80.6199 47.5847 102.089 47.5857C144.204 47.5875 186.319 47.5414 228.431 47.6217C246.848 47.6569 266.185 47.4703 265.847 41.3837C265.506 35.2528 245.317 35.3613 227.487 35.3618C165.555 35.3635 103.622 35.3641 41.6893 35.3649C36.7347 35.365 31.7749 35.3255 26.8265 35.3692C10.9564 35.5097 0.333903 33.4664 0.00837498 29.6355C-0.346737 25.4559 10.6192 23.3694 27.5533 23.3845C72.1442 23.4244 116.736 23.405 161.328 23.3783C168.723 23.3739 177.75 23.8539 183.126 22.9747C191.018 21.6844 202.038 19.2023 201.274 17.5349C200.262 15.3267 190.637 12.5192 182.015 11.6112C172.131 10.5703 159.284 11.3904 147.739 11.2911C120.618 11.0578 112.528 7.54313 123.16 0.475334C211.952 -3.25116e-08 301.299 0 392.969 0Z" fill="url(#paint0_linear_46_236)"/>
<defs>
<linearGradient id="paint0_linear_46_236" x1="0" y1="30" x2="578" y2="30" gradientUnits="userSpaceOnUse">
<stop offset="0.61" stop-color="#F1F1F1"/>
<stop offset="1" stop-color="#8B8B8B"/>
</linearGradient>
</defs>
</svg>
