<svg width="30" height="33" viewBox="0 0 30 33" fill="none" xmlns="http://www.w3.org/2000/svg">
<path d="M24.375 0C21.4807 0 19.125 2.355 19.125 5.25C19.125 5.55935 19.1569 5.86047 19.2085 6.15527L7.75049 11.8843C7.00667 11.4797 6.15445 11.25 5.25 11.25C2.35575 11.25 0 13.605 0 16.5C0 19.395 2.35575 21.75 5.25 21.75C6.30644 21.75 7.2892 21.4338 8.11377 20.8945L19.1499 27.2651C19.1352 27.425 19.125 27.5864 19.125 27.75C19.125 30.645 21.4807 33 24.375 33C27.2693 33 29.625 30.645 29.625 27.75C29.625 24.855 27.2693 22.5 24.375 22.5C22.726 22.5 21.2543 23.2667 20.291 24.46L10.0767 18.564C10.3488 17.9301 10.5 17.2324 10.5 16.5C10.5 15.6531 10.2938 14.8551 9.93604 14.146L20.5532 8.8374C21.5117 9.85776 22.8683 10.5 24.375 10.5C27.2693 10.5 29.625 8.145 29.625 5.25C29.625 2.355 27.2693 0 24.375 0Z" fill="black"/>
</svg>

