<svg width="30" height="30" viewBox="0 0 30 30" fill="none" xmlns="http://www.w3.org/2000/svg">
<path d="M21.1702 0C29.3588 0 30 0.640501 30 8.82975V21.1695C30 29.3588 29.3588 30 21.1702 30H8.82975C0.64125 30 0 29.3588 0 21.1702V8.82975C0 0.640501 0.64125 0 8.82975 0H21.1702ZM9.77175 23.25V11.046H5.979V23.25H9.77175ZM7.87575 9.30075C9.0945 9.30075 10.086 8.30925 10.086 7.089C10.086 5.87025 9.0945 4.87875 7.87575 4.87875C6.654 4.87875 5.664 5.86875 5.664 7.089C5.664 8.30925 6.6525 9.30075 7.87575 9.30075ZM24 23.25V16.5563C24 13.2698 23.2905 10.7423 19.4497 10.7423C17.6047 10.7423 16.368 11.754 15.861 12.7133H15.81V11.046H12.1718V23.25H15.9623V17.2125C15.9623 15.621 16.266 14.079 18.2393 14.079C20.1847 14.079 20.2102 15.8993 20.2102 17.3153V23.25H24Z" fill="black"/>
</svg>
