<svg width="599" height="77" viewBox="0 0 599 77" fill="none" xmlns="http://www.w3.org/2000/svg">
<path d="M243.626 16.7352C249.893 14.818 259.78 12.665 256.576 11.4027C253.085 10.0272 237.75 8.82441 227.055 8.69349C197.495 8.33166 167.661 8.54494 137.938 8.57602C119.521 8.59529 104.121 7.58807 104.301 4.27397C104.477 1.02977 118.975 -0.0163229 137.964 0.000191974C219.029 0.0707234 300.098 0.0513384 381.165 0.0102862C399.385 0.00106011 414.826 0.748524 415.398 4.15257C416.035 7.94369 398.722 8.56197 380.023 8.57816C366.517 8.58984 351.941 8.11505 339.844 8.80204C330.127 9.35389 315.992 11.527 317.106 12.6162C318.78 14.2515 330.821 15.9114 340.878 16.8989C347.543 17.5532 360.183 16.5473 367.047 17.1826C377.32 18.1335 391.544 19.8542 391.701 21.2838C391.858 22.7231 377.961 25.186 368.31 25.4723C346.494 26.1195 323.491 25.7665 300.986 25.6972C281.455 25.637 262.618 25.9501 263.048 30.0448C263.447 33.8458 281.296 34.1244 299.941 34.1121C384.61 34.056 469.282 34.0886 553.953 34.0971C562.054 34.0979 572.163 33.6676 577.799 34.293C586.956 35.3089 598.979 37.0301 599 38.4579C599.021 39.8542 586.592 41.4949 577.563 42.5583C572.76 43.1239 563.582 42.71 556.378 42.7102C438.38 42.7138 320.381 42.7131 202.382 42.7129C196.977 42.7129 190.177 42.3658 186.433 42.7732C175.713 43.9397 159.954 45.1736 157.633 46.8152C153.421 49.7946 168.8 51.2265 186.149 51.2697C223.072 51.3615 260.008 51.2955 296.939 51.2943C304.145 51.2941 311.358 51.3271 318.556 51.288C337.158 51.1872 355.004 51.6793 355.307 55.4227C355.635 59.4851 336.574 59.8538 317.137 59.8094C297.324 59.764 277.504 59.81 257.688 59.7945C237.633 59.7788 213.405 59.4267 212.803 63.9577C212.198 68.5007 235.744 68.3473 256.326 68.3313C313.972 68.2866 371.622 68.3555 429.269 68.3109C448.403 68.2961 464.909 68.9488 464.645 72.694C464.378 76.4654 446.814 76.9978 428.372 76.9974C324.787 76.9954 221.202 76.9648 117.618 77C97.9758 77.0066 82.1392 75.9756 82.4145 72.4821C82.6716 69.2184 97.8525 68.115 116.599 68.3164C120.184 68.355 123.802 68.3065 127.405 68.3028C144.084 68.2857 155.914 67.127 156.479 64.2426C157.1 61.0729 144.342 59.8313 126.746 59.8089C85.3145 59.7562 43.8772 59.7418 2.44606 59.7938C-16.149 59.8172 -34.1816 59.4237 -34.7125 55.6912C-35.2824 51.6848 -16.9941 51.1815 2.95183 51.2747C25.451 51.3797 47.9873 51.3336 70.5005 51.2776C88.0333 51.234 101.402 49.9792 100.81 46.8867C100.229 43.853 87.1011 42.6595 69.2671 42.698C51.2553 42.7369 33.2296 42.6495 15.2253 42.721C-3.62401 42.7958 -17.2264 41.8036 -17.3035 38.3482C-17.3774 35.0412 -3.0765 34.1733 13.7488 34.1478C56.9811 34.0823 100.218 34.1074 143.454 34.0926C155.163 34.0886 166.872 34.0627 178.581 34.0627C195.954 34.0628 206.9 32.597 206.532 29.8261C206.168 27.086 195.121 25.6912 177.727 25.7003C116.476 25.7326 55.2251 25.7113 -6.02575 25.7211C-26.7509 25.7245 -52.4757 26.3009 -52.9922 21.4631C-53.5122 16.5907 -27.99 17.048 -7.06558 17.0392C75.7823 17.0042 158.63 16.9433 243.626 16.7352Z" fill="url(#paint0_linear_46_241)"/>
<defs>
<linearGradient id="paint0_linear_46_241" x1="-53" y1="38.5" x2="599" y2="38.5" gradientUnits="userSpaceOnUse">
<stop stop-color="#8B8B8B"/>
<stop offset="0.275" stop-color="#F1F1F1"/>
</linearGradient>
</defs>
</svg>
