<svg width="195" height="28" viewBox="0 0 195 28" fill="none" xmlns="http://www.w3.org/2000/svg">
<path d="M-15.8659 0.393833C34.8635 0.148409 84.3741 0.0492816 133.885 3.48684e-05C143.693 -0.00971696 150.075 2.02708 148.167 4.80302C146.987 6.51936 139.392 8.36694 133.475 9.00552C126.73 9.73347 118.648 9.17863 111.148 9.18822C100.838 9.2014 92.8356 10.4298 93.1812 14.1008C93.5004 17.4906 101.235 18.5644 110.935 18.5512C132.449 18.522 153.965 18.5915 175.478 18.5261C186.177 18.4936 195.076 19.2844 195 23.3491C194.928 27.1624 186.044 27.9934 176.235 27.9952C106.188 28.0085 36.1415 27.9911 -33.9053 27.9808C-43.854 27.9793 -52.8491 27.0825 -52.9979 23.3911C-53.1555 19.4828 -44.4537 18.4766 -33.4903 18.5188C-8.97673 18.613 15.5458 18.4698 40.059 18.5683C50.9117 18.6119 61.8349 18.2914 61.9791 14.0238C62.1344 9.42454 50.4652 9.14043 39.2745 9.17827C23.7656 9.23075 8.19756 9.42549 -7.22721 9.05373C-12.7171 8.92142 -21.1077 7.62236 -22.3321 6.29815C-23.8159 4.6933 -19.1113 2.49763 -15.8659 0.393833Z" fill="url(#paint0_linear_46_245)"/>
<defs>
<linearGradient id="paint0_linear_46_245" x1="-53" y1="14" x2="195" y2="14" gradientUnits="userSpaceOnUse">
<stop offset="0.305" stop-color="#393939"/>
<stop offset="0.6" stop-color="#9F9F9F"/>
</linearGradient>
</defs>
</svg>
