<svg width="619" height="55" viewBox="0 0 619 55" fill="none" xmlns="http://www.w3.org/2000/svg">
<path d="M126.925 55C112.092 46.3052 119.814 43.9373 160.752 43.9224C191.816 43.9111 222.882 43.8787 253.941 43.9654C272.222 44.0164 287.291 42.5869 287.807 38.2602C288.374 33.5144 273.03 31.9557 253.333 32.2211C245.377 32.3283 237.355 32.1677 229.379 32.2289C210.611 32.3729 194.167 31.4275 193.867 26.4232C193.57 21.4849 209.023 20.3424 228.343 20.3872C270.94 20.486 313.55 20.323 356.144 20.4411C374.82 20.4928 391.941 19.8168 392.496 14.867C393.084 9.62562 375.778 8.6195 355.83 8.62987C255.538 8.68203 155.245 8.64589 54.9529 8.63941C46.9652 8.63886 38.9588 8.54644 30.9936 8.63817C13.1258 8.84398 0.725468 7.23164 0.0303615 3.0835C-0.731848 -1.46506 12.9434 -3.10147 31.3212 -3.12C73.9217 -3.16295 116.526 -3.22381 159.123 -3.13972C177.791 -3.10289 194.478 -3.8004 194.717 -8.85595C194.958 -13.9482 177.756 -14.7237 159.463 -14.7402C146.152 -14.7521 132.795 -14.6168 119.541 -14.8185C102.712 -15.0744 91.021 -17.5569 94.6742 -20.9976C96.9459 -23.137 111.047 -25.9829 120.68 -26.1551C155.96 -26.786 191.595 -26.4869 227.091 -26.422C246.755 -26.3861 264.407 -27.2143 263.896 -32.5729C263.413 -37.6313 246.013 -38.2676 227.626 -38.1475C215.212 -38.0664 201.224 -37.3384 190.782 -38.3584C179.939 -39.4176 172.519 -42.2333 163.602 -44.2809C172.343 -46.1691 180.933 -49.6559 189.846 -49.6977C276.786 -50.1058 363.794 -50.0988 450.734 -49.6883C459.497 -49.6469 475.917 -45.8438 474.697 -44.3722C472.766 -42.0441 459.682 -38.6964 449.967 -38.4501C419.289 -37.6722 387.979 -38.0539 356.923 -38.1473C338.424 -38.2029 321.601 -37.6623 321.126 -32.518C320.612 -26.9499 338.887 -26.453 357.996 -26.4571C407.698 -26.4676 457.402 -26.3835 507.102 -26.4605C526.037 -26.4898 542.37 -25.5768 542.109 -20.5849C541.851 -15.6389 525.439 -14.7238 506.555 -14.7353C433.779 -14.7797 361.001 -14.678 288.225 -14.7195C268.671 -14.7306 250.836 -14.0747 251.63 -8.6259C252.373 -3.53173 269.899 -3.12331 288.191 -3.13387C384.045 -3.18912 479.901 -3.15553 575.755 -3.14588C582.847 -3.14515 592.067 -3.70907 596.588 -2.93056C605.985 -1.31254 619.121 1.04941 618.999 3.0701C618.886 4.94347 604.083 8.17348 594.752 8.36429C562.182 9.03054 529.181 8.63908 496.344 8.64967C490.132 8.65168 483.884 8.55973 477.713 8.67443C460.465 8.99501 445.979 11.0018 450.238 14.9168C452.648 17.1323 467.85 19.8205 478.661 20.1696C503.006 20.9559 528.218 20.535 553.05 20.3819C572.167 20.264 585.529 22.0247 585.67 26.3069C585.814 30.6803 571.596 32.2645 553 32.2444C501.524 32.1888 450.033 32.0833 398.573 32.2955C377.263 32.3834 348.618 30.1375 343.78 37.9325C341.009 42.3972 357.085 43.9609 400.162 43.9559C422.35 43.9534 444.542 43.8885 466.726 43.9559C500.533 44.0587 509.344 47.1632 496.626 54.5476C374.7 55 252.061 55 126.925 55Z" fill="url(#paint0_linear_46_231)"/>
<defs>
<linearGradient id="paint0_linear_46_231" x1="309.5" y1="55" x2="309.5" y2="-50" gradientUnits="userSpaceOnUse">
<stop offset="0.2" stop-color="#D5D5D5"/>
<stop offset="0.955" stop-color="#6F6F6F"/>
</linearGradient>
</defs>
</svg>
