<svg width="271" height="21" viewBox="0 0 271 21" fill="none" xmlns="http://www.w3.org/2000/svg">
<path d="M76.8572 20.8718C62.0571 20.8707 48.6888 20.8613 35.3206 20.8712C25.8867 20.8782 19.2034 19.9429 19.1523 17.3941C19.101 14.8413 25.9791 13.8512 35.2165 13.8391C62.4302 13.8035 89.6454 13.8147 116.86 13.8372C126.748 13.8454 137.591 13.9575 137.702 10.5392C137.809 7.23003 127.71 7.03817 117.367 7.05518C86.3342 7.10623 55.2989 7.06603 24.2646 7.06167C20.924 7.06121 17.5182 7.16829 14.2555 7.04215C5.89635 6.71899 -0.62866 5.70691 0.0482957 3.34114C0.69048 1.09705 6.47253 0.024465 15.5599 0.0280731C48.0265 0.0409485 80.4934 0.0215586 112.96 0.0189705C147.814 0.0161962 182.669 0.048252 217.522 0.000260812C227.657 -0.0137006 236.689 0.525196 236.851 3.46846C237.012 6.38922 228.203 7.10989 217.994 7.07314C207.492 7.03534 196.977 7.14425 186.485 7.05984C176.216 6.97725 167.541 7.54663 167.837 10.583C168.112 13.3991 176.536 13.8538 186.174 13.8439C232.008 13.7967 277.845 13.8256 323.68 13.8314C327.497 13.8319 332.449 13.4901 334.889 13.958C339.63 14.8672 346.044 16.2459 346 17.4166C345.957 18.5635 339.376 19.9366 334.447 20.7414C331.407 21.2377 326.087 20.8669 321.791 20.867C240.623 20.8703 159.456 20.8708 76.8572 20.8718Z" fill="url(#paint0_linear_46_242)"/>
<defs>
<linearGradient id="paint0_linear_46_242" x1="0" y1="10.5" x2="346" y2="10.5" gradientUnits="userSpaceOnUse">
<stop offset="0.505" stop-color="#F1F1F1"/>
<stop offset="1" stop-color="#8B8B8B"/>
</linearGradient>
</defs>
</svg>
