<svg width="552" height="52" viewBox="0 0 552 52" fill="none" xmlns="http://www.w3.org/2000/svg">
<path d="M177.521 52C159.229 45.4511 167.224 42.2235 199.998 42.1505C226.822 42.0907 253.651 42.0939 280.476 42.1332C296.769 42.1571 309.522 40.9189 309.327 36.7692C309.129 32.5685 295.796 31.5717 279.765 31.6031C250.574 31.6603 221.375 31.5409 192.188 31.6365C175.475 31.6913 160.79 31.0168 161.074 26.3662C161.359 21.6989 176.745 21.1683 192.989 21.2365C203.241 21.2795 213.503 21.2395 223.758 21.2005C238.617 21.144 248.774 19.4161 249.002 16.0466C249.255 12.3169 238.228 10.7529 222.436 10.7574C160.894 10.7753 99.3525 10.7669 37.8107 10.7515C30.7272 10.7497 21.9233 11.2212 16.9631 10.4485C9.47175 9.28145 0.0675969 7.22186 0.000365975 5.52391C-0.067296 3.81642 9.26096 1.78821 16.4838 0.485194C20.5102 -0.241157 28.634 0.160432 34.9115 0.159969C191.134 0.148318 347.356 0.150105 503.579 0.154176C509.099 0.154309 516.249 -0.289585 519.806 0.328424C527.715 1.70284 539.964 3.79563 539.158 5.2727C538.08 7.24741 527.664 9.71588 518.772 10.5067C508.465 11.4233 495.461 10.7637 483.627 10.7651C431.553 10.7714 379.478 10.8081 327.406 10.7471C311.168 10.7281 298.249 11.7577 298.324 15.9795C298.4 20.2093 311.935 21.2483 327.723 21.2504C388.476 21.2585 449.229 21.2547 509.982 21.2587C516.291 21.2591 523.996 20.7595 528.612 21.4059C537.543 22.6567 549.745 24.3181 551.512 26.2457C554.419 29.4163 544.016 31.5461 528.609 31.5609C484.429 31.6034 440.247 31.6133 396.067 31.6339C391.333 31.6361 385.203 31.1886 382.134 31.7036C373.56 33.1425 361.506 34.7272 359.512 36.7119C356.174 40.0338 367.86 41.8726 382.413 42.091C391.841 42.2324 401.347 42.07 410.805 42.1387C438.678 42.3414 446.256 45.572 431.771 51.6419C347.333 52 263.537 52 177.521 52Z" fill="url(#paint0_linear_46_238)"/>
<defs>
<linearGradient id="paint0_linear_46_238" x1="0" y1="26" x2="552" y2="26" gradientUnits="userSpaceOnUse">
<stop offset="0.455" stop-color="#B1B1B1"/>
<stop offset="0.715" stop-color="#4B4B4B"/>
</linearGradient>
</defs>
</svg>
