<svg width="36" height="31" viewBox="0 0 36 31" fill="none" xmlns="http://www.w3.org/2000/svg">
<path d="M4.38867 0.0055317C3.84027 0.052817 3.34164 0.402692 3.12451 0.941567C1.52101 4.92932 1.9654 8.67053 2.26465 10.214C0.799149 12.3943 0 15.0004 0 17.6261C0 21.1834 1.39239 24.5274 3.92139 27.0422C6.30189 29.4092 10.3093 30.9386 14.1328 30.9386H21.8643C25.6878 30.9386 29.6966 29.4092 32.0771 27.0422C34.6061 24.5274 35.9985 21.1834 35.9985 17.6261C35.9985 14.7859 35.0764 12.0092 33.3896 9.72917C33.6176 8.26066 33.8733 4.86527 32.2998 1.11002C32.0021 0.399774 31.2155 0.0273051 30.4775 0.254555C26.612 1.43731 24.1743 3.37405 23.1108 4.3693C23.0171 4.35505 22.9233 4.34179 22.8296 4.32829C20.0403 3.93229 16.1634 3.93157 13.1821 4.32682C12.9609 4.35682 12.7398 4.38682 12.52 4.42057C11.5203 3.29707 9.27581 1.35416 4.94531 0.0626606C4.75987 0.00734811 4.57147 -0.0102295 4.38867 0.0055317ZM12.0864 15.1886H24.0996C25.2171 15.1886 26.2666 15.6242 27.0586 16.4147C27.8491 17.2045 28.2847 18.2554 28.2847 19.3737V26.1794C26.4614 27.2549 24.0678 27.9386 21.8643 27.9386H14.1328C11.9938 27.9386 9.68236 27.291 7.88086 26.2687C7.92961 25.9297 7.90137 19.3737 7.90137 19.3737C7.90137 18.2562 8.33694 17.2052 9.12744 16.4147C9.90669 15.6362 10.9839 15.1886 12.0864 15.1886ZM12.0791 18.1886C11.0314 18.1886 10.1807 19.5326 10.1807 21.1886C10.1807 22.8446 11.0314 24.1886 12.0791 24.1886C13.1269 24.1886 13.9775 22.8446 13.9775 21.1886C13.9775 19.5326 13.1269 18.1886 12.0791 18.1886ZM24.145 18.1886C23.0973 18.1886 22.2466 19.5326 22.2466 21.1886C22.2466 22.8446 23.0973 24.1886 24.145 24.1886C25.1928 24.1886 26.0435 22.8446 26.0435 21.1886C26.0435 19.5326 25.1928 18.1886 24.145 18.1886Z" fill="black"/>
</svg>
