<svg width="30" height="30" viewBox="0 0 30 30" fill="none" xmlns="http://www.w3.org/2000/svg">
<path d="M14.8652 0C1.07873 0 0 1.07948 0 14.8652V15.1348C0 28.9205 1.07874 30 14.8652 30H15.1348C28.9213 30 30 28.9205 30 15.1348V15C30 1.089 28.911 0 15 0H14.8652ZM23.9956 4.5C24.8244 4.49775 25.4978 5.16686 25.5 5.99561C25.5022 6.82436 24.8331 7.49775 24.0044 7.5C23.1756 7.50225 22.5022 6.83314 22.5 6.00439C22.4978 5.17564 23.1669 4.50225 23.9956 4.5ZM14.9824 7.5C19.1239 7.49025 22.4902 10.8409 22.5 14.9824C22.5098 19.1239 19.1591 22.4902 15.0176 22.5C10.8761 22.5098 7.50975 19.1591 7.5 15.0176C7.49025 10.8761 10.8409 7.50975 14.9824 7.5ZM14.9897 10.5C12.5042 10.506 10.494 12.5262 10.5 15.0117C10.506 17.4965 12.5255 19.506 15.0103 19.5C17.4958 19.494 19.506 17.4745 19.5 14.9897C19.494 12.5042 17.4745 10.494 14.9897 10.5Z" fill="black"/>
</svg>
